<?xml version="1.0" encoding="UTF-8"?>
<svg version="1.1" xmlns="http://www.w3.org/2000/svg" width="270" height="33">
<path d="M0 0 C1.32 0 2.64 0 4 0 C4 0.66 4 1.32 4 2 C10.93 2 17.86 2 25 2 C25 1.34 25 0.68 25 0 C26.32 0 27.64 0 29 0 C29 5.28 29 10.56 29 16 C25.04 16 21.08 16 17 16 C17 13.69 17 11.38 17 9 C15.35 9 13.7 9 12 9 C12 11.31 12 13.62 12 16 C8.04 16 4.08 16 0 16 C0 10.72 0 5.44 0 0 Z " fill="#D0FF12" transform="translate(2,15)"/>
<path d="M0 0 C2.79224073 -0.08071788 5.58216566 -0.14035408 8.375 -0.1875 C9.1690625 -0.21263672 9.963125 -0.23777344 10.78125 -0.26367188 C12.85586148 -0.29004405 14.93100865 -0.15486462 17 0 C17.66 0.99 18.32 1.98 19 3 C19.33 2.01 19.66 1.02 20 0 C21.65 0 23.3 0 25 0 C24.45660208 4.56454251 23.20536179 7.9728176 21 12 C19.02 12 17.04 12 15 12 C14.34 10.02 13.68 8.04 13 6 C12.67 7.98 12.34 9.96 12 12 C10.02090602 12.02686553 8.04171029 12.04633375 6.0625 12.0625 C4.96035156 12.07410156 3.85820312 12.08570313 2.72265625 12.09765625 C0 12 0 12 -1 11 C-0.91015699 9.14227838 -0.75388139 7.28752015 -0.5625 5.4375 C-0.46066406 4.42558594 -0.35882813 3.41367188 -0.25390625 2.37109375 C-0.17011719 1.58863281 -0.08632812 0.80617188 0 0 Z M4 7 C4.33 7.66 4.66 8.32 5 9 C5.66 8.34 6.32 7.68 7 7 C6.01 7 5.02 7 4 7 Z " fill="#FFFFFF" transform="translate(245,12)"/>
<path d="M0 0 C3.47921735 -0.02683201 6.95823039 -0.0467567 10.4375 -0.0625 C11.92733398 -0.07506836 11.92733398 -0.07506836 13.44726562 -0.08789062 C14.39150391 -0.09111328 15.33574219 -0.09433594 16.30859375 -0.09765625 C17.62041626 -0.10551147 17.62041626 -0.10551147 18.95874023 -0.11352539 C21 0 21 0 22 1 C23.68183948 1.23287008 25.3712416 1.41264166 27.0625 1.5625 C27.98160156 1.64628906 28.90070313 1.73007813 29.84765625 1.81640625 C30.91306641 1.90728516 30.91306641 1.90728516 32 2 C32 3.32 32 4.64 32 6 C26.72 6.66 21.44 7.32 16 8 C17.65 8 19.3 8 21 8 C21 9.32 21 10.64 21 12 C17.37 12 13.74 12 10 12 C8.64560332 9.29120665 8.93498549 6.99066732 9 4 C7.35 4 5.7 4 4 4 C4 6.64 4 9.28 4 12 C2.68 12 1.36 12 0 12 C0 8.04 0 4.08 0 0 Z " fill="#FFFFFF" transform="translate(135,12)"/>
<path d="M0 0 C1.32 0 2.64 0 4 0 C4 5.28 4 10.56 4 16 C2.68 16 1.36 16 0 16 C0 13.36 0 10.72 0 8 C-0.66 8 -1.32 8 -2 8 C-2 10.64 -2 13.28 -2 16 C-3.97909398 16.02686553 -5.95828971 16.04633375 -7.9375 16.0625 C-9.03964844 16.07410156 -10.14179688 16.08570312 -11.27734375 16.09765625 C-14 16 -14 16 -15 15 C-14.82185455 11.31641186 -14.37961543 7.66961579 -14 4 C-9.38 4 -4.76 4 0 4 C0 2.68 0 1.36 0 0 Z M-10 11 C-9.67 11.66 -9.34 12.32 -9 13 C-8.34 12.34 -7.68 11.68 -7 11 C-7.99 11 -8.98 11 -10 11 Z " fill="#FFFFFF" transform="translate(198,8)"/>
<path d="M0 0 C1.32 0 2.64 0 4 0 C4 3.96 4 7.92 4 12 C4.66 12 5.32 12 6 12 C5.979375 11.05125 5.95875 10.1025 5.9375 9.125 C6 6 6 6 7 4 C10.96 4 14.92 4 19 4 C19 7.96 19 11.92 19 16 C16.02077407 16.02683987 13.04178705 16.04676037 10.0625 16.0625 C8.78729492 16.07506836 8.78729492 16.07506836 7.48632812 16.08789062 C6.67744141 16.09111328 5.86855469 16.09433594 5.03515625 16.09765625 C4.2862915 16.10289307 3.53742676 16.10812988 2.76586914 16.11352539 C1 16 1 16 0 15 C-0.07313567 12.46950598 -0.09247527 9.96695163 -0.0625 7.4375 C-0.05798828 6.72658203 -0.05347656 6.01566406 -0.04882812 5.28320312 C-0.03700864 3.52209987 -0.01907263 1.76103964 0 0 Z M11 8 C11 9.32 11 10.64 11 12 C12.32 12 13.64 12 15 12 C15 10.68 15 9.36 15 8 C13.68 8 12.36 8 11 8 Z " fill="#FFFFFF" transform="translate(114,8)"/>
<path d="M0 0 C4.29 0 8.58 0 13 0 C13.64774951 3.88649705 14.13802817 6.98873237 14.125 10.8125 C14.12757812 11.58207031 14.13015625 12.35164063 14.1328125 13.14453125 C14 15 14 15 13 16 C8.66469082 16.14393457 4.33842269 16.04212061 0 16 C0 10.72 0 5.44 0 0 Z M5 4 C5 4.66 5 5.32 5 6 C6.32 6 7.64 6 9 6 C9 5.34 9 4.68 9 4 C7.68 4 6.36 4 5 4 Z M5 10 C5 10.66 5 11.32 5 12 C6.32 11.67 7.64 11.34 9 11 C7.68 10.67 6.36 10.34 5 10 Z " fill="#FFFFFF" transform="translate(44,8)"/>
<path d="M0 0 C3.96 0 7.92 0 12 0 C12.02685095 2.47923801 12.04676547 4.9581884 12.0625 7.4375 C12.07087891 8.14455078 12.07925781 8.85160156 12.08789062 9.58007812 C12.09653588 11.38693559 12.05220011 13.19387603 12 15 C11 16 11 16 8.49609375 16.09765625 C7.48675781 16.08605469 6.47742188 16.07445313 5.4375 16.0625 C4.42558594 16.05347656 3.41367188 16.04445313 2.37109375 16.03515625 C1.58863281 16.02355469 0.80617188 16.01195313 0 16 C-0.19504458 13.89651926 -0.38078496 11.79217415 -0.5625 9.6875 C-0.66691406 8.51574219 -0.77132812 7.34398437 -0.87890625 6.13671875 C-1 3 -1 3 0 0 Z M4 4 C4 5.32 4 6.64 4 8 C4.99 8 5.98 8 7 8 C7 6.68 7 5.36 7 4 C6.01 4 5.02 4 4 4 Z " fill="#FFFFFF" transform="translate(87,12)"/>
<path d="M0 0 C1.98 0 3.96 0 6 0 C6.99 2.31 7.98 4.62 9 7 C9.99 4.69 10.98 2.38 12 0 C13.65 0 15.3 0 17 0 C16.34309381 3.78239671 15.279869 7.21841526 13.9375 10.8125 C13.57527344 11.78832031 13.21304688 12.76414062 12.83984375 13.76953125 C12.56269531 14.50558594 12.28554687 15.24164063 12 16 C10.02 16 8.04 16 6 16 C5.18395001 14.0848421 4.37229368 12.16781166 3.5625 10.25 C3.11003906 9.18265625 2.65757812 8.1153125 2.19140625 7.015625 C1.26020447 4.6586159 0.5215928 2.47007165 0 0 Z " fill="#FFFFFF" transform="translate(166,8)"/>
<path d="M0 0 C3.63 0 7.26 0 11 0 C12.26237731 2.52475462 12.09856404 4.31200466 12.0625 7.125 C12.05347656 8.03507812 12.04445313 8.94515625 12.03515625 9.8828125 C12.02355469 10.58148438 12.01195313 11.28015625 12 12 C10.02090602 12.02686553 8.04171029 12.04633375 6.0625 12.0625 C4.96035156 12.07410156 3.85820313 12.08570313 2.72265625 12.09765625 C0 12 0 12 -1 11 C-0.82185455 7.31641186 -0.37961543 3.66961579 0 0 Z M4 7 C4.33 7.66 4.66 8.32 5 9 C5.66 8.34 6.32 7.68 7 7 C6.01 7 5.02 7 4 7 Z " fill="#FFFFFF" transform="translate(101,12)"/>
<path d="M0 0 C3.63 0 7.26 0 11 0 C12.26237731 2.52475462 12.09856404 4.31200466 12.0625 7.125 C12.05347656 8.03507812 12.04445313 8.94515625 12.03515625 9.8828125 C12.02355469 10.58148438 12.01195313 11.28015625 12 12 C10.02090602 12.02686553 8.04171029 12.04633375 6.0625 12.0625 C4.96035156 12.07410156 3.85820313 12.08570313 2.72265625 12.09765625 C0 12 0 12 -1 11 C-0.82185455 7.31641186 -0.37961543 3.66961579 0 0 Z M4 7 C4.33 7.66 4.66 8.32 5 9 C5.66 8.34 6.32 7.68 7 7 C6.01 7 5.02 7 4 7 Z " fill="#FFFFFF" transform="translate(60,12)"/>
<path d="M0 0 C1.51400391 0.01740234 1.51400391 0.01740234 3.05859375 0.03515625 C4.07050781 0.04417969 5.08242187 0.05320312 6.125 0.0625 C7.29869141 0.07990234 7.29869141 0.07990234 8.49609375 0.09765625 C8.69087114 1.72180003 8.87668833 3.34702048 9.05859375 4.97265625 C9.16300781 5.87757812 9.26742187 6.7825 9.375 7.71484375 C9.49609375 10.09765625 9.49609375 10.09765625 8.49609375 12.09765625 C4.53609375 12.09765625 0.57609375 12.09765625 -3.50390625 12.09765625 C-3.17390625 10.44765625 -2.84390625 8.79765625 -2.50390625 7.09765625 C-2.83390625 6.76765625 -3.16390625 6.43765625 -3.50390625 6.09765625 C-3.62890625 3.59765625 -3.62890625 3.59765625 -3.50390625 1.09765625 C-2.50390625 0.09765625 -2.50390625 0.09765625 0 0 Z " fill="#FFFFFF" transform="translate(206.50390625,11.90234375)"/>
<path d="M0 0 C1.32 0 2.64 0 4 0 C4 1.32 4 2.64 4 4 C6.64 4 9.28 4 12 4 C12 7.96 12 11.92 12 16 C10.68 16 9.36 16 8 16 C8 13.36 8 10.72 8 8 C6.68 8 5.36 8 4 8 C4 10.64 4 13.28 4 16 C2.68 16 1.36 16 0 16 C0 10.72 0 5.44 0 0 Z " fill="#FFFFFF" transform="translate(217,8)"/>
<path d="M0 0 C3.96 0 7.92 0 12 0 C12 3.96 12 7.92 12 12 C10.68 12 9.36 12 8 12 C8 9.36 8 6.72 8 4 C6.68 4 5.36 4 4 4 C4 6.64 4 9.28 4 12 C2.68 12 1.36 12 0 12 C0 8.04 0 4.08 0 0 Z " fill="#FFFFFF" transform="translate(231,12)"/>
<path d="M0 0 C3.96 0 7.92 0 12 0 C12 3.96 12 7.92 12 12 C10.68 12 9.36 12 8 12 C8 9.36 8 6.72 8 4 C6.68 4 5.36 4 4 4 C4 6.64 4 9.28 4 12 C2.68 12 1.36 12 0 12 C0 8.04 0 4.08 0 0 Z " fill="#FFFFFF" transform="translate(73,12)"/>
<path d="M0 0 C4.62 0 9.24 0 14 0 C14.33 1.65 14.66 3.3 15 5 C9.72 5 4.44 5 -1 5 C-0.67 3.35 -0.34 1.7 0 0 Z " fill="#D0FF12" transform="translate(10,11)"/>
<path d="M0 0 C1.32 0 2.64 0 4 0 C4 0.99 4 1.98 4 3 C4.66 3 5.32 3 6 3 C6 2.01 6 1.02 6 0 C6.99 0 7.98 0 9 0 C9.33 2.64 9.66 5.28 10 8 C6.37 8 2.74 8 -1 8 C-0.67 5.36 -0.34 2.72 0 0 Z " fill="#D0FF12" transform="translate(12,1)"/>
</svg>
